# xmcd CD database file generated by OrangeCD 6.3
#
# Track frame offsets:
#	182
#	13585
#	27162
#	48865
#	60480
#	76022
#	89605
#	101670
#	119707
#	129580
#	140862
#	159530
#	170250
#
# Disc length: 2457 seconds
#
# Revision: 3
# Processed by: cddbd v1.5.2PL0 Copyright (c) Steve Scherf et al.
# Submitted via: OrangeCD 6.3
#
DISCID=a809970d
DTITLE=Piano Red - Live And Feelin' Good
DYEAR=1996
DGENRE=Piano Blues
TTITLE0=Dr. Feelgood
TTITLE1=Shake, Rattle And Roll
TTITLE2=Everyday I Have The Blues
TTITLE3=The Right String, Baby, But The Wrong Yo Yo
TTITLE4=I Ain't Gonna Be Your Low Down Dog No More
TTITLE5=Boogie Time
TTITLE6=Rockin' With Red
TTITLE7=Blues, Blues, Blues
TTITLE8=Reefer Man
TTITLE9=Do She Love Me
TTITLE10=Goodbye (Try To Forget)
TTITLE11=It's A Sin To Tell A Lie
TTITLE12=Red's Boogie
EXTD=
EXTT0=
EXTT1=
EXTT2=
EXTT3=
EXTT4=
EXTT5=
EXTT6=
EXTT7=
EXTT8=
EXTT9=
EXTT10=
EXTT11=
EXTT12=
PLAYORDER=
